<svg width="181" height="140" viewBox="0 0 181 140" fill="none" xmlns="http://www.w3.org/2000/svg">
<path d="M139.759 72.9875C139.996 72.9235 140.223 72.8545 140.437 72.7798C138.139 81.0149 132.845 89.8733 126.264 97.7143C119.41 105.879 111.197 112.896 103.605 116.929L102.933 117.286L103.527 117.761L129.866 138.833L130.157 139.066L130.463 138.853C160.266 118.184 180.004 85.9548 180.004 49.847C180.004 18.4711 159.695 0.499878 136.883 0.499878C116.014 0.499878 98.5502 17.9639 98.5502 38.8325C98.5502 59.6867 113.127 73.8128 131.615 73.8128C133.549 73.8128 135.607 73.6921 137.37 73.449C138.251 73.3274 139.067 73.1742 139.759 72.9875ZM42.0648 72.9875C42.3131 72.9205 42.5504 72.848 42.7724 72.7692C40.6906 81.0015 35.3957 89.864 28.7502 97.7126C21.8374 105.877 13.5044 112.895 5.91028 116.929L5.2321 117.29L5.83594 117.764L32.654 138.836L32.9444 139.064L33.2478 138.853C63.0543 118.181 82.3101 85.9506 82.3101 49.847C82.3101 34.1759 77.3659 21.8366 69.5457 13.4103C61.726 4.98434 51.056 0.499878 39.6674 0.499878C18.3159 0.499878 1.33479 17.968 1.33479 38.8325C1.33479 59.6818 15.9066 73.8128 33.9207 73.8128C35.8545 73.8128 37.9131 73.6921 39.6759 73.449C40.5571 73.3274 41.3722 73.1742 42.0648 72.9875Z" stroke="#C7C2BE"/>
</svg>
