<svg width="180" height="141" viewBox="0 0 180 141" fill="none" xmlns="http://www.w3.org/2000/svg">
<path d="M40.7452 67.4549C40.5081 67.5189 40.2811 67.5878 40.0678 67.6625C42.3652 59.4275 47.659 50.5691 54.2409 42.7281C61.0948 34.5631 69.3077 27.5462 76.8998 23.5129L77.5715 23.1561L76.9776 22.6809L50.6384 1.60957L50.3474 1.37674L50.0411 1.58914C20.2386 22.2586 0.5 54.4876 0.5 90.5954C0.5 121.971 20.8099 139.943 43.6215 139.943C64.4901 139.943 81.9541 122.478 81.9541 101.61C81.9541 80.7556 67.3776 66.6296 48.8894 66.6296C46.9556 66.6296 44.897 66.7503 43.1342 66.9934C42.253 67.115 41.4378 67.2682 40.7452 67.4549ZM138.44 67.4549C138.191 67.5219 137.954 67.5944 137.732 67.6732C139.814 59.4409 145.109 50.5783 151.754 42.7298C158.667 34.5655 167 27.5473 174.594 23.5129L175.272 23.1526L174.668 22.6782L147.85 1.60684L147.56 1.37867L147.257 1.58914C117.45 22.2614 98.1943 54.4918 98.1943 90.5954C98.1943 106.266 103.139 118.606 110.959 127.032C118.778 135.458 129.448 139.943 140.837 139.943C162.189 139.943 179.17 122.474 179.17 101.61C179.17 80.7606 164.598 66.6296 146.584 66.6296C144.65 66.6296 142.591 66.7503 140.829 66.9934C139.947 67.115 139.132 67.2682 138.44 67.4549Z" stroke="#C7C2BE"/>
</svg>
